<svg id="Layer_1" data-name="Layer 1" xmlns="http://www.w3.org/2000/svg" width="14" height="14" viewBox="0 0 14 14">
  <defs>
    <style>
      .cls-1 {
        fill: #fff;
      }
    </style>
  </defs>
  <title>alert-light</title>
  <path class="cls-1" d="M7,14a7,7,0,1,1,7-7A7,7,0,0,1,7,14ZM7,1a6,6,0,1,0,6,6A6,6,0,0,0,7,1Z"/>
  <path class="cls-1" d="M7.09,8.08a0.5,0.5,0,0,1-.5-0.5v-4a0.5,0.5,0,0,1,1,0v4A0.5,0.5,0,0,1,7.09,8.08Z"/>
  <circle class="cls-1" cx="7.08" cy="10.23" r="0.67"/>
</svg>
