<svg id="Layer_1" data-name="Layer 1" xmlns="http://www.w3.org/2000/svg" viewBox="0 0 177.98 29.17"><defs><style>.cls-1{fill:#231f20;}.cls-2{fill:#ee3527;}.cls-2,.cls-3{fill-rule:evenodd;}.cls-3{fill:#939598;}</style></defs><title>In-logo</title><path class="cls-1" d="M9,24.47A2.23,2.23,0,1,0,9.43,20H5.7v4.44H9ZM5.7,16.06L8.6,16c1.54,0,2.54-.6,2.54-2.17a2.11,2.11,0,0,0-2.34-2H5.7v4.19ZM0,28.45V7.88H9.86c3.87,0,7.12,1.77,7.12,5.39,0,2.54-2.14,4.07-4.45,4.5v0.06c2.74,0.37,5,2.11,5,5,0,6-7.64,5.58-7.84,5.58"/><path class="cls-1" d="M31,20.45L28.39,11.9H28.3l-2.79,8.55H31Zm-14,8L25.14,7.88h7l8.12,20.57H33.77l-1.37-4H24.06l-1.34,4"/><polyline class="cls-1" points="53.43 7.88 60.18 7.88 53.09 16.94 60.75 28.45 53.68 28.45 46.9 17.51 46.84 17.51 46.84 28.45 41.15 28.45 41.15 7.88 46.84 7.88 46.84 16.91 46.9 16.91"/><polyline class="cls-1" points="61.55 28.45 61.55 7.88 77.22 7.88 77.22 11.87 67.24 11.87 67.24 16.12 76.42 16.12 76.42 20.11 67.24 20.11 67.24 24.46 77.22 24.46 77.22 28.45"/><path class="cls-1" d="M86.31,16.6c1.82,0,3.59-.26,3.59-2.37s-1.77-2.36-3.59-2.36H84.09V16.6h2.22ZM84.09,28.45h-5.7V7.88H87.9c3.48,0,8,.94,8,5.3,0,3.08-2.36,4.7-5.24,5v0.11c3.65,0.09,4.33,1.94,4.7,5.13a24.91,24.91,0,0,0,.94,5H90.1a37.4,37.4,0,0,1-.63-4.36c-0.23-2.48-.34-3.5-3.25-3.5H84.09"/><polygon class="cls-2" points="105.05 0 120.56 0 113.12 8.03 105.05 0 105.05 0"/><path class="cls-3" d="M98.69,28.52V7.93H101V28.52H98.69Zm5.41,0V7.93h2.18l13,16.5V7.93h2.26V28.52h-1.85L106.36,11.64V28.52H104.1Zm27.35,0.29A12,12,0,0,1,123,25.52l1.44-1.71a9.8,9.8,0,0,0,7.06,2.91c2.76,0,4.59-1.47,4.59-3.5V23.16c0-1.91-1-3-5.35-3.91-4.73-1-6.91-2.56-6.91-5.94V13.25c0-3.23,2.85-5.62,6.76-5.62a10.74,10.74,0,0,1,7.23,2.53L136.5,12a9,9,0,0,0-5.94-2.23c-2.68,0-4.38,1.47-4.38,3.32v0.06c0,1.94,1.06,3,5.59,4s6.7,2.68,6.7,5.82V23c0,3.53-2.94,5.82-7,5.82h0Zm9-.29V7.93h2.32V28.52h-2.32Zm10.85,0V10.08h-6.91V7.93h16.17v2.15h-6.91V28.52h-2.35Z"/><path class="cls-3" d="M168.9,29.17c-5.39,0-10.05-4.3-10.05-10.7V18.39c0-6,4.18-10.7,9.73-10.7,5.75,0,9.41,4.66,9.41,10.74a5.15,5.15,0,0,1,0,.8h-17c0.36,5.11,4,8.08,8,8.08a9.21,9.21,0,0,0,7-3.22l1.37,1.21a10.78,10.78,0,0,1-8.48,3.86h0Zm-8-11.7h14.92c-0.28-4.14-2.65-8-7.36-8-4.06,0-7.2,3.42-7.56,8h0Z"/></svg>